<svg xmlns="http://www.w3.org/2000/svg" width="31.999" height="31.999" viewBox="0 0 31.999 31.999">
    <g id="blockchain_data_1_" transform="translate(-2 -2)">
        <g id="Group_343" transform="translate(2 2)">
            <g id="Group_299" transform="translate(18.285 21.714)">
                <g id="Group_298">
                    <g id="Group_297">
                        <path id="Path_4075"
                              d="M27.714,31.285H18.571A.572.572,0,0,1,18,30.714V21.571A.572.572,0,0,1,18.571,21h9.143a.572.572,0,0,1,.571.571v9.143A.572.572,0,0,1,27.714,31.285Zm-8.571-1.143h8v-8h-8Z"
                              transform="translate(-18 -21)" fill="current"/>
                    </g>
                </g>
            </g>
            <g id="Group_302" transform="translate(0 21.714)">
                <g id="Group_301">
                    <g id="Group_300">
                        <path id="Path_4076"
                              d="M11.714,31.285H2.571A.572.572,0,0,1,2,30.714V21.571A.572.572,0,0,1,2.571,21h9.143a.572.572,0,0,1,.571.571v9.143A.572.572,0,0,1,11.714,31.285ZM3.143,30.143h8v-8h-8Z"
                              transform="translate(-2 -21)" fill="current"/>
                    </g>
                </g>
            </g>
            <g id="Group_305" transform="translate(18.285)">
                <g id="Group_304">
                    <g id="Group_303">
                        <path id="Path_4077"
                              d="M27.714,15.714H18.571A.572.572,0,0,1,18,15.142V6a.576.576,0,0,1,.167-.4L21.6,2.167A.576.576,0,0,1,22,2h9.143a.572.572,0,0,1,.571.571v9.143a.576.576,0,0,1-.167.4l-3.428,3.428A.576.576,0,0,1,27.714,15.714Zm-8.571-1.143h8.335l3.094-3.094V3.143H22.236L19.143,6.236Z"
                              transform="translate(-18 -2)" fill="current"/>
                    </g>
                </g>
            </g>
            <g id="Group_308" transform="translate(18.285 3.428)">
                <g id="Group_307">
                    <g id="Group_306">
                        <path id="Path_4078"
                              d="M27.714,15.285H18.571A.572.572,0,0,1,18,14.714V5.571A.572.572,0,0,1,18.571,5h9.143a.572.572,0,0,1,.571.571v9.143A.572.572,0,0,1,27.714,15.285Zm-8.571-1.143h8v-8h-8Z"
                              transform="translate(-18 -5)" fill="current"/>
                    </g>
                </g>
            </g>
            <g id="Group_311" transform="translate(0 3.428)">
                <g id="Group_310">
                    <g id="Group_309">
                        <path id="Path_4079"
                              d="M11.714,15.285H2.571A.572.572,0,0,1,2,14.714V5.571A.572.572,0,0,1,2.571,5h9.143a.572.572,0,0,1,.571.571v9.143A.572.572,0,0,1,11.714,15.285ZM3.143,14.143h8v-8h-8Z"
                              transform="translate(-2 -5)" fill="current"/>
                    </g>
                </g>
            </g>
            <g id="Group_314" transform="translate(27.427 18.857)">
                <g id="Group_313">
                    <g id="Group_312">
                        <path id="Path_4080"
                              d="M26.571,22.5a.571.571,0,0,1-.4-.975l2.857-2.857a.571.571,0,0,1,.808.808l-2.857,2.857A.569.569,0,0,1,26.571,22.5Z"
                              transform="translate(-26 -18.501)" fill="current"/>
                    </g>
                </g>
            </g>
            <g id="Group_317" transform="translate(9.142 18.857)">
                <g id="Group_316">
                    <g id="Group_315">
                        <path id="Path_4081"
                              d="M10.571,22.5a.571.571,0,0,1-.4-.975l2.857-2.857a.571.571,0,0,1,.808.808l-2.857,2.857A.569.569,0,0,1,10.571,22.5Z"
                              transform="translate(-10 -18.501)" fill="current"/>
                    </g>
                </g>
            </g>
            <g id="Group_320" transform="translate(27.427 0.572)">
                <g id="Group_319">
                    <g id="Group_318">
                        <path id="Path_4082"
                              d="M26.571,6.5a.571.571,0,0,1-.4-.975l2.857-2.857a.571.571,0,1,1,.808.808L26.975,6.333A.569.569,0,0,1,26.571,6.5Z"
                              transform="translate(-26 -2.501)" fill="current"/>
                    </g>
                </g>
            </g>
            <g id="Group_323" transform="translate(9.142 0.572)">
                <g id="Group_322">
                    <g id="Group_321">
                        <path id="Path_4083"
                              d="M10.571,6.5a.571.571,0,0,1-.4-.975l2.857-2.857a.571.571,0,1,1,.808.808L10.975,6.333A.569.569,0,0,1,10.571,6.5Z"
                              transform="translate(-10 -2.501)" fill="current"/>
                    </g>
                </g>
            </g>
            <g id="Group_326" transform="translate(11.428 25.142)">
                <g id="Group_325">
                    <g id="Group_324">
                        <path id="Path_4084"
                              d="M18.857,25.143H12.571a.571.571,0,0,1,0-1.143h6.286a.571.571,0,0,1,0,1.143Z"
                              transform="translate(-12 -24)" fill="current"/>
                    </g>
                </g>
            </g>
            <g id="Group_329" transform="translate(11.428 6.857)">
                <g id="Group_328">
                    <g id="Group_327">
                        <path id="Path_4085"
                              d="M18.857,9.143H12.571a.571.571,0,0,1,0-1.143h6.286a.571.571,0,0,1,0,1.143Z"
                              transform="translate(-12 -8)" fill="current"/>
                    </g>
                </g>
            </g>
            <g id="Group_331" transform="translate(18.285 18.285)">
                <g id="Group_330">
                    <path id="Path_4086"
                          d="M18.571,31.714A.572.572,0,0,1,18,31.142V22a.576.576,0,0,1,.167-.4L21.6,18.167a.571.571,0,0,1,.808.808l-3.26,3.262v8.335h8.335l3.094-3.094V19.143h-4A.572.572,0,0,1,26,18.571h0A.572.572,0,0,1,26.571,18h4.571a.572.572,0,0,1,.571.571v9.143a.576.576,0,0,1-.167.4l-3.428,3.428a.576.576,0,0,1-.4.167Z"
                          transform="translate(-18 -18)" fill="current"/>
                </g>
            </g>
            <g id="Group_334" transform="translate(23.999 13.142)">
                <g id="Group_333">
                    <g id="Group_332">
                        <path id="Path_4087"
                              d="M23.571,20.928A.572.572,0,0,1,23,20.357V14.071a.571.571,0,0,1,1.143,0v6.286A.572.572,0,0,1,23.571,20.928Z"
                              transform="translate(-23 -13.5)" fill="current"/>
                    </g>
                </g>
            </g>
            <g id="Group_337" transform="translate(5.714 13.142)">
                <g id="Group_336">
                    <g id="Group_335">
                        <path id="Path_4088"
                              d="M7.571,20.928A.572.572,0,0,1,7,20.357V14.071a.571.571,0,0,1,1.143,0v6.286A.572.572,0,0,1,7.571,20.928Z"
                              transform="translate(-7 -13.5)" fill="current"/>
                    </g>
                </g>
            </g>
            <g id="Group_339">
                <g id="Group_338">
                    <path id="Path_4089"
                          d="M2.571,15.714A.572.572,0,0,1,2,15.142V6a.576.576,0,0,1,.167-.4L5.6,2.167A.576.576,0,0,1,6,2h9.143a.572.572,0,0,1,.571.571V7.143a.572.572,0,0,1-.571.571h0a.572.572,0,0,1-.571-.571v-4H6.236L3.143,6.236v8.335h8.335l3.262-3.262a.571.571,0,1,1,.808.808l-3.428,3.428a.572.572,0,0,1-.4.168Z"
                          transform="translate(-2 -2)" fill="current"/>
                </g>
            </g>
            <g id="Group_340" transform="translate(0 18.285)">
                <path id="Path_4090"
                      d="M11.714,31.714H2.571A.572.572,0,0,1,2,31.142V22a.576.576,0,0,1,.167-.4L5.6,18.167a.571.571,0,1,1,.808.808l-3.26,3.262v8.335h8.335l3.262-3.262a.571.571,0,1,1,.808.808l-3.428,3.428A.572.572,0,0,1,11.714,31.714Z"
                      transform="translate(-2 -18)" fill="current"/>
            </g>
            <g id="Group_342" transform="translate(8 18.285)">
                <g id="Group_341">
                    <path id="Path_4091"
                          d="M13.571,23.143v-4h-4A.572.572,0,0,1,9,18.571H9A.572.572,0,0,1,9.571,18h4.571a.572.572,0,0,1,.571.571v4.571a.572.572,0,0,1-.571.571h0A.572.572,0,0,1,13.571,23.143Z"
                          transform="translate(-9 -18)" fill="current"/>
                </g>
            </g>
        </g>
    </g>
</svg>
