<svg xmlns="http://www.w3.org/2000/svg" width="15" height="17.795" viewBox="0 0 15 17.795">
    <g id="_1" transform="translate(-65.59 -48)">
        <path id="Path_4097"
              d="M76.343,143.143H66.254a.664.664,0,0,1-.664-.664V129.594a.664.664,0,0,1,.664-.664H76.343a.664.664,0,0,1,.664.664v12.885A.664.664,0,0,1,76.343,143.143Zm-9.425-1.328h8.761V130.258H66.918Z"
              transform="translate(0 -77.347)" fill="current"/>
        <path id="Path_4098"
              d="M157.273,62.213h-3.583a.664.664,0,1,1,0-1.328h2.919V49.328h-8.761v2.918a.664.664,0,1,1-1.328,0V48.664a.664.664,0,0,1,.664-.664h10.089a.664.664,0,0,1,.664.664V61.549A.664.664,0,0,1,157.273,62.213Z"
              transform="translate(-77.347 0)" fill="current"/>
    </g>
</svg>
