<svg xmlns="http://www.w3.org/2000/svg" width="25" height="24.999" viewBox="0 0 25 24.999">
    <g id="Layer_2" transform="translate(-65.84 -65.85)">
        <g id="Group_354" transform="translate(65.84 65.85)">
            <path id="Path_4102"
                  d="M72.985,66.9a1.051,1.051,0,0,0-1.052-1.052H66.892A1.051,1.051,0,0,0,65.84,66.9v5.041a1.051,1.051,0,0,0,1.052,1.052h5.041a1.051,1.051,0,0,0,1.052-1.052V66.9Zm-2.1,3.99H67.944V67.954h2.938v2.938Z"
                  transform="translate(-65.84 -65.85)" fill="current"/>
            <path id="Path_4103"
                  d="M202.712,72.995h5.041a1.051,1.051,0,0,0,1.052-1.052V66.9a1.051,1.051,0,0,0-1.052-1.052h-5.041A1.051,1.051,0,0,0,201.66,66.9v5.041A1.052,1.052,0,0,0,202.712,72.995Zm1.052-5.041H206.7v2.938h-2.938Z"
                  transform="translate(-192.732 -65.85)" fill="current"/>
            <path id="Path_4104"
                  d="M338.512,72.995h5.041a1.051,1.051,0,0,0,1.052-1.052V66.9a1.051,1.051,0,0,0-1.052-1.052h-5.041A1.051,1.051,0,0,0,337.46,66.9v5.041A1.052,1.052,0,0,0,338.512,72.995Zm1.052-5.041H342.5v2.938h-2.938Z"
                  transform="translate(-319.605 -65.85)" fill="current"/>
            <path id="Path_4105"
                  d="M72.985,202.7a1.051,1.051,0,0,0-1.052-1.052H66.892A1.051,1.051,0,0,0,65.84,202.7v5.041a1.051,1.051,0,0,0,1.052,1.052h5.041a1.051,1.051,0,0,0,1.052-1.052V202.7Zm-2.1,3.99H67.944v-2.938h2.938v2.938Z"
                  transform="translate(-65.84 -192.723)" fill="current"/>
            <path id="Path_4106"
                  d="M201.66,207.753a1.051,1.051,0,0,0,1.052,1.052h5.041a1.051,1.051,0,0,0,1.052-1.052v-5.041a1.051,1.051,0,0,0-1.052-1.052h-5.041a1.051,1.051,0,0,0-1.052,1.052Zm2.1-3.99H206.7V206.7h-2.938Z"
                  transform="translate(-192.732 -192.732)" fill="current"/>
            <path id="Path_4107"
                  d="M337.46,207.753a1.051,1.051,0,0,0,1.052,1.052h5.041a1.051,1.051,0,0,0,1.052-1.052v-5.041a1.051,1.051,0,0,0-1.052-1.052h-5.041a1.051,1.051,0,0,0-1.052,1.052Zm2.1-3.99H342.5V206.7h-2.938Z"
                  transform="translate(-319.605 -192.732)" fill="current"/>
            <path id="Path_4108"
                  d="M71.934,337.46H66.892a1.051,1.051,0,0,0-1.052,1.052v5.041a1.051,1.051,0,0,0,1.052,1.052h5.041a1.051,1.051,0,0,0,1.052-1.052v-5.041A1.051,1.051,0,0,0,71.934,337.46ZM70.882,342.5H67.944v-2.938h2.938V342.5Z"
                  transform="translate(-65.84 -319.605)" fill="current"/>
            <path id="Path_4109"
                  d="M201.66,343.553a1.051,1.051,0,0,0,1.052,1.052h5.041a1.051,1.051,0,0,0,1.052-1.052v-5.041a1.051,1.051,0,0,0-1.052-1.052h-5.041a1.051,1.051,0,0,0-1.052,1.052Zm2.1-3.99H206.7V342.5h-2.938Z"
                  transform="translate(-192.732 -319.605)" fill="current"/>
            <path id="Path_4110"
                  d="M337.46,343.553a1.051,1.051,0,0,0,1.052,1.052h5.041a1.051,1.051,0,0,0,1.052-1.052v-5.041a1.051,1.051,0,0,0-1.052-1.052h-5.041a1.051,1.051,0,0,0-1.052,1.052Zm2.1-3.99H342.5V342.5h-2.938Z"
                  transform="translate(-319.605 -319.605)" fill="current"/>
        </g>
    </g>
</svg>
