<svg id="_352555_books_library_my_icon" data-name="352555_books_library_my_icon" xmlns="http://www.w3.org/2000/svg"
     width="36" height="36" viewBox="0 0 36 36">
    <path id="Path_4111"  d="M0,0H36V36H0Z" fill="none"/>
    <path id="Path_4112"
          d="M6.8,9.6H4V29.2A2.8,2.8,0,0,0,6.8,32H26.4V29.2H6.8ZM29.2,4H12.4A2.8,2.8,0,0,0,9.6,6.8V23.6a2.8,2.8,0,0,0,2.8,2.8H29.2A2.8,2.8,0,0,0,32,23.6V6.8A2.8,2.8,0,0,0,29.2,4ZM27.8,16.6h-14V13.8h14Zm-5.6,5.6H13.8V19.4h8.4ZM27.8,11h-14V8.2h14Z"
          fill="current"/>
</svg>
